<?xml version="1.0" encoding="utf-8"?>
<svg version="1.1" xmlns="http://www.w3.org/2000/svg" viewBox="0 0 48 48" xml:space="preserve">
  <defs>
    <mask id="g-cutout">
      <circle cx="24" cy="24" r="23.5" fill="white"/>
      <path fill="black" transform="translate(24,24) scale(0.55) translate(-24,-24)"
        d="M44.5,20H24v8.5h11.8C34.7,33.9,30.1,37,24,37c-7.2,0-13-5.8-13-13s5.8-13,13-13
        c3.1,0,5.9,1.1,8.1,2.9l6.4-6.4C34.6,4.1,29.6,2,24,2C11.8,2,2,11.8,2,24s9.8,22,22,22
        c11,0,21-8,21-22C45,22.7,44.8,21.3,44.5,20z"/>
    </mask>
  </defs>
  <circle cx="24" cy="24" r="23.5" mask="url(#g-cutout)"/>
</svg>
